<?xml version="1.0" encoding="UTF-8"?>
<svg id="Layer_2" xmlns="http://www.w3.org/2000/svg" xmlns:xlink="http://www.w3.org/1999/xlink" version="1.1" viewBox="0 0 250 250">
  <!-- Generator: Adobe Illustrator 29.7.1, SVG Export Plug-In . SVG Version: 2.1.1 Build 8)  -->
  <defs>
    <style>
      .st0 {
        isolation: isolate;
      }

      .st1 {
        fill: #ed7470;
      }

      .st2 {
        fill: #fdf2ec;
      }
    </style>
  </defs>
  <rect class="st2" x="-16.6" y="-18.7" width="283.2" height="287.3"/>
  <g id="Layer_1-2">
    <g>
      <path class="st1" d="M106.7,47.9v29.6c-6.1.9-11.8.3-17.7-1.7l-.2-27.9c-1.8-5.7-9.4-6.1-11.3,0v27.4c-5.6,2.6-11.6,3.1-17.7,2.2v-29.3c0-.7-1.3-2.6-1.9-3.2-4-3.4-8.9-1.3-9.8,3.6v73.2c1.3,11.4,10.9,20.5,22.4,20.5l.6.6-4.5,51.8c.8,11.3,10.6,12.7,20,12,9.9-.7,13.7-6.5,12.8-16.2l-4.2-48.2c11.5,0,20.8-8.3,22.7-19.6V47.5c-1.3-6.1-10.4-5.6-11.4.4h0Z"/>
      <path class="st1" d="M201.4,78.6c-1.3-16.8-18.7-35.6-35.9-35.6h-22.1v154.2c0,5.4,7.4,9,12,9.4,11.3,1,22.1-.2,21.6-14.1l-4.6-50c5.1-2.5,10.6-4.4,15.3-7.8,6.9-5.2,12.8-15.2,13.6-23.8.8-8.2.8-24.1,0-32.3h0Z"/>
    </g>
  </g>
  <g id="Layer_1-21">
    <g>
      <path d="M614.3,33.4v35.2c-7.3,1.1-14,.3-21-2l-.2-33.1c-2.1-6.8-11.2-7.3-13.4,0v32.6c-6.7,3.1-13.8,3.7-21,2.6v-34.8c0-.8-1.5-3.1-2.2-3.8-4.7-4-10.6-1.5-11.7,4.3v86.9c1.5,13.6,12.9,24.3,26.6,24.4l.7.7-5.4,61.5c1,13.4,12.6,15.1,23.8,14.3,11.8-.8,16.3-7.7,15.2-19.3l-5-57.2c13.7,0,24.7-9.9,27-23.3V32.9c-1.6-7.2-12.3-6.7-13.5.5h.1Z"/>
      <path d="M726.8,69.9c-1.6-19.9-22.2-42.3-42.7-42.3h-26.2v183.2c0,6.4,8.8,10.7,14.3,11.2,13.4,1.2,26.2-.2,25.7-16.7l-5.5-59.4c6-3,12.6-5.2,18.2-9.3,8.2-6.2,15.2-18,16.2-28.3,1-9.7.9-28.6,0-38.4h0Z"/>
    </g>
  </g>
  <g id="d6g2no.tif">
    <image id="Layer_0" class="st0" width="3089" height="1907" transform="translate(-600.8 780.3) scale(.5)" xlink:href="logo-1.png"/>
  </g>
</svg>