<?xml version="1.0" encoding="UTF-8"?>
<svg id="Layer_2" xmlns="http://www.w3.org/2000/svg" xmlns:xlink="http://www.w3.org/1999/xlink" version="1.1" viewBox="0 0 250 250">
  <!-- Generator: Adobe Illustrator 29.7.1, SVG Export Plug-In . SVG Version: 2.1.1 Build 8)  -->
  <defs>
    <style>
      .st0 {
        fill: #ed7470;
      }

      .st1 {
        fill: #fdf2ec;
      }
    </style>
  </defs>
  <rect class="st1" x="-16.6" y="-18.7" width="283.2" height="287.3"/>
  <g id="Layer_1-2">
    <g>
      <path class="st0" d="M103.2,33.4v35.2c-7.3,1.1-14,.3-21-2l-.2-33.1c-2.1-6.8-11.2-7.3-13.4,0v32.6c-6.7,3.1-13.8,3.7-21,2.6v-34.8c0-.8-1.5-3.1-2.2-3.8-4.7-4-10.6-1.5-11.7,4.3v86.9c1.5,13.6,12.9,24.3,26.6,24.4l.7.7-5.4,61.5c1,13.4,12.6,15.1,23.8,14.3,11.8-.8,16.3-7.7,15.2-19.3l-5-57.2c13.7,0,24.7-9.9,27-23.3V32.9c-1.6-7.2-12.3-6.7-13.5.5h0Z"/>
      <path class="st0" d="M215.7,69.9c-1.6-19.9-22.2-42.3-42.7-42.3h-26.2v183.2c0,6.4,8.8,10.7,14.3,11.2,13.4,1.2,26.2-.2,25.7-16.7l-5.5-59.4c6-3,12.6-5.2,18.2-9.3,8.2-6.2,15.2-18,16.2-28.3,1-9.7.9-28.6,0-38.4h0Z"/>
    </g>
  </g>
  <g id="Layer_1-21" data-name="Layer_1-2">
    <g>
      <path d="M614.3,33.4v35.2c-7.3,1.1-14,.3-21-2l-.2-33.1c-2.1-6.8-11.2-7.3-13.4,0v32.6c-6.7,3.1-13.8,3.7-21,2.6v-34.8c0-.8-1.5-3.1-2.2-3.8-4.7-4-10.6-1.5-11.7,4.3v86.9c1.5,13.6,12.9,24.3,26.6,24.4l.7.7-5.4,61.5c1,13.4,12.6,15.1,23.8,14.3,11.8-.8,16.3-7.7,15.2-19.3l-5-57.2c13.7,0,24.7-9.9,27-23.3V32.9c-1.6-7.2-12.3-6.7-13.5.5h0Z"/>
      <path d="M726.8,69.9c-1.6-19.9-22.2-42.3-42.7-42.3h-26.2v183.2c0,6.4,8.8,10.7,14.3,11.2,13.4,1.2,26.2-.2,25.7-16.7l-5.5-59.4c6-3,12.6-5.2,18.2-9.3,8.2-6.2,15.2-18,16.2-28.3,1-9.7.9-28.6,0-38.4h0Z"/>
    </g>
  </g>
  <g id="d6g2no.tif">
    <image id="Layer_0" width="3088" height="1906" transform="translate(-600.8 780.4) scale(.5)" xlink:href="logo-1.png"/>
  </g>
</svg>